<?xml version="1.0" encoding="UTF-8" standalone="no"?>
<svg
   xmlns:dc="http://purl.org/dc/elements/1.1/"
   xmlns:cc="http://creativecommons.org/ns#"
   xmlns:rdf="http://www.w3.org/1999/02/22-rdf-syntax-ns#"
   xmlns:svg="http://www.w3.org/2000/svg"
   xmlns="http://www.w3.org/2000/svg"
   xmlns:sodipodi="http://sodipodi.sourceforge.net/DTD/sodipodi-0.dtd"
   xmlns:inkscape="http://www.inkscape.org/namespaces/inkscape"
   version="1.1"
   width="20"
   height="13"
   viewBox="0 0 20 13"
   id="svg12"
   sodipodi:docname="google-cardboard.svg"
   inkscape:version="1.0.2 (e86c8708, 2021-01-15)">
  <metadata
     id="metadata18">
    <rdf:RDF>
      <cc:Work
         rdf:about="">
        <dc:format>image/svg+xml</dc:format>
        <dc:type
           rdf:resource="http://purl.org/dc/dcmitype/StillImage" />
        <dc:title></dc:title>
      </cc:Work>
    </rdf:RDF>
  </metadata>
  <defs
     id="defs16" />
  <sodipodi:namedview
     pagecolor="#ffffff"
     bordercolor="#666666"
     borderopacity="1"
     objecttolerance="10"
     gridtolerance="10"
     guidetolerance="10"
     inkscape:pageopacity="0"
     inkscape:pageshadow="2"
     inkscape:window-width="1080"
     inkscape:window-height="1219"
     id="namedview14"
     showgrid="false"
     fit-margin-top="0"
     fit-margin-left="0"
     fit-margin-right="0"
     fit-margin-bottom="0"
     inkscape:zoom="42"
     inkscape:cx="10"
     inkscape:cy="6"
     inkscape:window-x="0"
     inkscape:window-y="25"
     inkscape:window-maximized="0"
     inkscape:current-layer="svg12" />
  <path
     d="M 18.74,0 H 1.2 C 0.55,0 0,0.57 0,1.27 V 11.73 C 0,12.43 0.55,13 1.23,13 H 6 c 0.54,0 1,-0.32 1.16,-0.79 L 8.55,8.74 C 8.79,8.16 9.35,7.75 10,7.75 c 0.65,0 1.21,0.41 1.45,0.99 l 1.39,3.47 c 0.19,0.47 0.62,0.79 1.11,0.79 h 4.79 C 19.45,13 20,12.43 20,11.73 V 1.27 C 20,0.57 19.45,0 18.74,0 M 5.22,8.58 C 4,8.58 3,7.55 3,6.29 3,5 4,4 5.22,4 6.44,4 7.43,5 7.43,6.29 7.43,7.55 6.44,8.58 5.22,8.58 m 9.56,0 C 13.56,8.58 12.57,7.55 12.57,6.29 12.57,5.03 13.56,4 14.78,4 16,4 17,5.03 17,6.29 17,7.55 16,8.58 14.78,8.58 Z"
     id="path10" />
</svg>
