<?xml version="1.0" encoding="UTF-8" standalone="no"?>
<svg
   xmlns:dc="http://purl.org/dc/elements/1.1/"
   xmlns:cc="http://creativecommons.org/ns#"
   xmlns:rdf="http://www.w3.org/1999/02/22-rdf-syntax-ns#"
   xmlns:svg="http://www.w3.org/2000/svg"
   xmlns="http://www.w3.org/2000/svg"
   xmlns:sodipodi="http://sodipodi.sourceforge.net/DTD/sodipodi-0.dtd"
   xmlns:inkscape="http://www.inkscape.org/namespaces/inkscape"
   viewBox="0 0 66.160713 66.160713"
   version="1.1"
   x="0px"
   y="0px"
   id="svg24"
   sodipodi:docname="service_design.svg"
   width="66.160713"
   height="66.160713"
   inkscape:version="1.0.2 (e86c8708, 2021-01-15)">
  <metadata
     id="metadata30">
    <rdf:RDF>
      <cc:Work
         rdf:about="">
        <dc:format>image/svg+xml</dc:format>
        <dc:type
           rdf:resource="http://purl.org/dc/dcmitype/StillImage" />
        <dc:title>Service Design Outline</dc:title>
      </cc:Work>
    </rdf:RDF>
  </metadata>
  <defs
     id="defs28" />
  <sodipodi:namedview
     pagecolor="#ffffff"
     bordercolor="#666666"
     borderopacity="1"
     objecttolerance="10"
     gridtolerance="10"
     guidetolerance="10"
     inkscape:pageopacity="0"
     inkscape:pageshadow="2"
     inkscape:window-width="1250"
     inkscape:window-height="1027"
     id="namedview26"
     showgrid="false"
     fit-margin-top="0"
     fit-margin-left="0"
     fit-margin-right="0"
     fit-margin-bottom="0"
     inkscape:zoom="8.064"
     inkscape:cx="35.080357"
     inkscape:cy="41.309066"
     inkscape:window-x="1406"
     inkscape:window-y="25"
     inkscape:window-maximized="0"
     inkscape:current-layer="svg24" />
  <title
     id="title10">Service Design Outline</title>
  <desc
     id="desc12">Created with Sketch.</desc>
  <g
     stroke="none"
     stroke-width="1"
     fill="none"
     fill-rule="evenodd"
     id="g18"
     transform="translate(-14.919643,-16.230617)">
    <path
       d="m 27.942071,23.762438 c -0.153898,-0.153897 -0.339442,-0.272461 -0.543755,-0.347462 l -7.873677,-2.890337 2.890337,7.873677 c 0.075,0.204313 0.193565,0.389857 0.347462,0.543755 l 18.207038,18.207038 5.179633,-5.179633 z M 49.33109,43.030137 42.030137,50.33109 c -0.585787,0.585786 -1.535534,0.585786 -2.121321,0 L 20.641118,31.063391 C 20.179425,30.601699 19.823734,30.045066 19.598731,29.432127 L 15.591878,18.516906 c -0.440408,-1.199731 0.725297,-2.365436 1.925028,-1.925028 l 10.915221,4.006853 c 0.612939,0.225003 1.169572,0.580694 1.631264,1.042387 L 49.33109,40.908816 c 0.585786,0.585787 0.585786,1.535534 0,2.121321 z m 0.830775,13.31136 21.994812,21.994812 c 0.585786,0.585787 1.535534,0.585787 2.12132,0 l 3.058312,-3.058312 c 0.585787,-0.585786 0.585787,-1.535534 0,-2.12132 L 55.341497,51.161865 Z m 6.240292,-8.361613 23.055473,23.055473 c 1.757359,1.757359 1.757359,4.606601 0,6.363961 l -3.058312,3.058312 c -1.75736,1.757359 -4.606602,1.757359 -6.363961,0 L 46.979884,57.402157 c -0.585786,-0.585786 -0.585786,-1.535533 0,-2.12132 l 7.300953,-7.300953 c 0.585787,-0.585786 1.535534,-0.585786 2.12132,0 z"
       fill="#000000"
       fill-rule="nonzero"
       id="path14" />
    <path
       d="m 35.845523,76.314693 c 2.931103,-2.931103 3.836772,-7.263989 2.420392,-11.083431 -0.20383,-0.549653 -0.06878,-1.167679 0.34575,-1.582206 L 62.338082,39.922639 c 0.414527,-0.414527 1.032553,-0.549581 1.582206,-0.345751 3.819442,1.41638 8.152328,0.510712 11.083431,-2.420391 2.92347,-2.92347 3.803232,-7.211805 2.468593,-10.953874 l -6.004126,6.004126 c -1.75736,1.75736 -4.606602,1.75736 -6.363962,0 -1.757359,-1.757359 -1.757359,-4.606601 0,-6.363961 l 6.004126,-6.004126 c -3.742068,-1.334639 -8.030403,-0.454878 -10.953873,2.468592 -2.931103,2.931103 -3.836772,7.263989 -2.420392,11.083432 0.20383,0.549652 0.06878,1.167679 -0.34575,1.582205 L 33.661918,58.699309 c -0.414527,0.414526 -1.032553,0.54958 -1.582206,0.34575 -3.819442,-1.41638 -8.152329,-0.510711 -11.083431,2.420392 -2.923471,2.92347 -3.803232,7.211805 -2.468593,10.953873 l 6.004126,-6.004126 c 1.75736,-1.757359 4.606602,-1.757359 6.363961,0 1.75736,1.75736 1.75736,4.606602 0,6.363961 l -6.004126,6.004126 c 3.742069,1.33464 8.030404,0.454878 10.953874,-2.468592 z m 2.12132,2.121321 C 33.585771,82.817085 26.82283,83.628309 21.56146,80.520911 20.717508,80.022468 20.570531,78.861763 21.263604,78.16869 l 7.510851,-7.510851 c 0.585787,-0.585787 0.585787,-1.535534 0,-2.12132 -0.585786,-0.585787 -1.535534,-0.585787 -2.12132,0 L 19.142284,76.04737 C 18.44921,76.740443 17.288506,76.593466 16.790062,75.749514 13.682665,70.488144 14.493888,63.725202 18.87496,59.34413 22.406791,55.8123 27.523164,54.567912 32.193334,55.925251 L 54.614277,33.504308 c -1.357339,-4.67017 -0.112951,-9.786544 3.41888,-13.318374 4.381071,-4.381072 11.144013,-5.192296 16.405383,-2.084898 0.843952,0.498444 0.990929,1.659148 0.297856,2.352221 l -7.510851,7.510852 c -0.585787,0.585786 -0.585787,1.535533 0,2.12132 0.585786,0.585786 1.535534,0.585786 2.12132,0 l 7.510851,-7.510851 c 0.693074,-0.693074 1.853778,-0.546096 2.352221,0.297856 3.107398,5.26137 2.296175,12.024311 -2.084897,16.405383 -3.531831,3.531831 -8.648204,4.776218 -13.318374,3.418879 L 41.385722,65.117639 c 1.35734,4.67017 0.112952,9.786544 -3.418879,13.318375 z"
       fill="#000000"
       fill-rule="nonzero"
       id="path16" />
  </g>
</svg>
