<?xml version="1.0" encoding="UTF-8" standalone="no"?>
<svg
   xmlns:dc="http://purl.org/dc/elements/1.1/"
   xmlns:cc="http://creativecommons.org/ns#"
   xmlns:rdf="http://www.w3.org/1999/02/22-rdf-syntax-ns#"
   xmlns:svg="http://www.w3.org/2000/svg"
   xmlns="http://www.w3.org/2000/svg"
   xmlns:sodipodi="http://sodipodi.sourceforge.net/DTD/sodipodi-0.dtd"
   xmlns:inkscape="http://www.inkscape.org/namespaces/inkscape"
   viewBox="0 0 100 100"
   version="1.1"
   x="0px"
   y="0px"
   id="svg112"
   sodipodi:docname="3.svg"
   width="100"
   height="100"
   inkscape:version="1.0.2 (e86c8708, 2021-01-15)">
  <metadata
     id="metadata118">
    <rdf:RDF>
      <cc:Work
         rdf:about="">
        <dc:format>image/svg+xml</dc:format>
        <dc:type
           rdf:resource="http://purl.org/dc/dcmitype/StillImage" />
        <dc:title>Google Cardboard 2</dc:title>
      </cc:Work>
    </rdf:RDF>
  </metadata>
  <defs
     id="defs116" />
  <sodipodi:namedview
     pagecolor="#ffffff"
     bordercolor="#666666"
     borderopacity="1"
     objecttolerance="10"
     gridtolerance="10"
     guidetolerance="10"
     inkscape:pageopacity="0"
     inkscape:pageshadow="2"
     inkscape:window-width="1034"
     inkscape:window-height="1079"
     id="namedview114"
     showgrid="false"
     inkscape:zoom="4.032"
     inkscape:cx="38.456434"
     inkscape:cy="58.123607"
     inkscape:window-x="0"
     inkscape:window-y="25"
     inkscape:window-maximized="0"
     inkscape:current-layer="svg112" />
  <title
     id="title82">Google Cardboard 2</title>
  <desc
     id="desc84">Created with Sketch.</desc>
  <g
     stroke="none"
     stroke-width="1"
     fill="none"
     fill-rule="evenodd"
     id="g106">
    <g
       fill="#000000"
       fill-rule="nonzero"
       id="g104">
      <path
         d="M 46.489889,35.189264 C 36.123744,33.885114 23.644917,33.652991 9.0576767,34.495738 8.5063113,34.527592 8.0335187,34.106445 8.0016647,33.555079 7.9698107,33.003714 8.3909579,32.530921 8.9423233,32.499067 23.643241,31.649753 36.240889,31.884086 46.739538,33.204906 c 10.72367,1.34913 17.464448,4.495188 20.144812,9.572859 0.07861,0.148922 0.118343,0.315285 0.115508,0.483658 l -0.669326,39.755411 c -0.0093,0.552206 -0.464486,0.992321 -1.016692,0.983024 -0.552206,-0.0093 -0.992322,-0.464485 -0.983025,-1.016692 L 64.995697,43.491731 C 62.603785,39.253705 56.459736,36.443557 46.489889,35.189264 Z"
         id="path86" />
      <polygon
         points="22,33 22,66.240882 9.4107081,71.911767 8.5892919,70.088233 20,64.948245 20,33 "
         id="polygon88" />
      <polygon
         points="54.263117,73.035236 65.263117,76.035236 64.736883,77.964764 53.736883,74.964764 "
         id="polygon90" />
      <path
         d="m 35,58 c -3.884663,0 -7,-3.374949 -7,-7.5 0,-4.125051 3.115337,-7.5 7,-7.5 3.884663,0 7,3.374949 7,7.5 0,4.125051 -3.115337,7.5 -7,7.5 z m 0,-2 c 2.742754,0 5,-2.44535 5,-5.5 0,-3.05465 -2.257246,-5.5 -5,-5.5 -2.742754,0 -5,2.44535 -5,5.5 0,3.05465 2.257246,5.5 5,5.5 z"
         transform="rotate(-40,35,50.5)"
         id="path92" />
      <path
         d="M 61.846849,63 H 61.384077 C 57.481443,63 54,59.427472 54,55.385728 54,51.320151 57.119598,48 61,48 c 3.880402,0 7,3.320151 7,7.385728 v 0.367267 z m 4.142502,-7.968998 C 65.819422,52.210292 63.637407,50 61,50 c -2.747015,0 -5,2.397825 -5,5.385728 0,2.791337 2.328076,5.32917 4.940307,5.591893 z"
         transform="rotate(-40,61,55.5)"
         id="path94" />
      <polygon
         points="65.621367,43.074453 87.621367,34.074453 88.378633,35.925547 66.378633,44.925547 "
         id="polygon96" />
      <path
         d="m 23.060611,68.998077 c 3.73453,0 9.263335,0.455592 16.601495,1.365518 7.176725,-2.299186 11.935695,-3.059671 14.469095,-2.210686 0.285603,0.09571 0.512849,0.315059 0.618598,0.597099 0.60414,1.61129 0.752261,3.313398 0.449024,5.089448 2.858723,0.85594 5.406279,1.982512 7.640677,3.381403 1.993543,1.248098 3.260401,2.653761 3.731677,4.212213 L 88,69.847523 V 35.622317 L 33.747452,27.023771 10,34.268619 v 36.174887 c 5.182385,-0.962819 9.533569,-1.445429 13.060611,-1.445429 z m 17.004135,3.336869 c -0.138836,0.04476 -0.285784,0.05861 -0.430538,0.04058 -7.372262,-0.918727 -12.901973,-1.377444 -16.573597,-1.377444 -3.649193,0 -8.27517,0.544134 -13.8691434,1.635388 C 8.5739926,72.75392 8,72.28108 8,71.651966 V 33.528197 C 8,33.088309 8.2874551,32.700078 8.7081984,32.571718 L 33.384421,25.043521 c 0.145144,-0.04428 0.298462,-0.05495 0.448339,-0.03119 l 55.323777,8.768327 C 89.642327,33.857648 90,34.276474 90,34.768327 v 35.67534 c 0,0.367274 -0.201329,0.704992 -0.524407,0.879665 L 66.251191,83.879665 c -0.681763,0.368597 -1.505564,-0.144937 -1.474806,-0.919352 0.05482,-1.380206 -0.890203,-2.724528 -2.998187,-4.044274 -2.296415,-1.437717 -4.96747,-2.574333 -8.015849,-3.407577 -0.52708,-0.144071 -0.840927,-0.684542 -0.704806,-1.21373 0.399196,-1.551927 0.390887,-3.000564 -0.01947,-4.36567 -2.19321,-0.440948 -6.570717,0.341473 -12.973327,2.405884 z"
         id="path98" />
      <path
         d="m 40.942147,70.872506 -1.884294,-0.670402 c 0.113563,-0.31919 1.188835,-4.451856 1.684346,-5.957467 1.600987,-4.864604 3.633819,-7.586418 6.782377,-7.214849 4.790213,0.565304 7.846016,9.838232 7.846016,17.193434 h -2 c 0,-6.365211 -2.785665,-14.818396 -6.080414,-15.207217 -1.79151,-0.211421 -3.330034,1.848551 -4.648219,5.853861 -0.46612,1.416308 -1.549523,5.580222 -1.699812,6.00264 z"
         id="path100" />
      <polygon
         points="21.254493,65.032926 40.254493,70.032926 39.745507,71.967074 20.745507,66.967074 "
         id="polygon102" />
    </g>
  </g>
</svg>
